{
  "accessors": [
    {
      "bufferView": 2,
      "componentType": 5126,
      "count": 439,
      "max": [
        1.0,
        1.0,
        1.0000001192092896
      ],
      "min": [
        -1.000000238418579,
        -1.0,
        -1.0000004768371582
      ],
      "type": "VEC3"
    },
    {
      "bufferView": 2,
      "byteOffset": 5268,
      "componentType": 5126,
      "count": 439,
      "max": [
        1.0,
        1.0,
        1.0
      ],
      "min": [
        -1.0,
        -1.0,
        -1.0
      ],
      "type": "VEC3"
    },
    {
      "bufferView": 1,
      "componentType": 5126,
      "count": 439,
      "max": [
        1.7154111862182617,
        0.6476330757141113
      ],
      "min": [
        1.42256498336792,
        0.3547874689102173
      ],
      "type": "VEC2"
    },
    {
      "bufferView": 0,
      "componentType": 5125,
      "count": 2280,
      "type": "SCALAR"
    },
    {
      "bufferView": 2,
      "byteOffset": 10536,
      "componentType": 5126,
      "count": 13501,
      "max": [
        15.010027885437012,
        20.325347900390625,
        13.130549430847168
      ],
      "min": [
        -13.167943954467773,
        -1.5538324117660522,
        -10.91305160522461
      ],
      "type": "VEC3"
    },
    {
      "bufferView": 2,
      "byteOffset": 172548,
      "componentType": 5126,
      "count": 13501,
      "max": [
        1.0,
        1.0,
        1.0
      ],
      "min": [
        -1.0,
        -1.0,
        -1.0
      ],
      "type": "VEC3"
    },
    {
      "bufferView": 1,
      "byteOffset": 3512,
      "componentType": 5126,
      "count": 13501,
      "max": [
        0.9851552248001099,
        0.9944725632667542
      ],
      "min": [
        0.0051302360370755196,
        0.0068271467462182045
      ],
      "type": "VEC2"
    },
    {
      "bufferView": 0,
      "byteOffset": 9120,
      "componentType": 5125,
      "count": 57717,
      "type": "SCALAR"
    },
    {
      "bufferView": 2,
      "byteOffset": 334560,
      "componentType": 5126,
      "count": 6986,
      "max": [
        2.8090031147003174,
        25.687023162841797,
        4.401927471160889
      ],
      "min": [
        -2.957174777984619,
        1.159355640411377,
        -2.947540044784546
      ],
      "type": "VEC3"
    },
    {
      "bufferView": 2,
      "byteOffset": 418392,
      "componentType": 5126,
      "count": 6986,
      "max": [
        0.9998478293418884,
        0.9995405673980713,
        0.9999997019767761
      ],
      "min": [
        -0.9988806247711182,
        -0.9997820258140564,
        -0.9998714923858643
      ],
      "type": "VEC3"
    },
    {
      "bufferView": 1,
      "byteOffset": 111520,
      "componentType": 5126,
      "count": 6986,
      "max": [
        0.9857255816459656,
        1.9924436807632446
      ],
      "min": [
        0.005859285593032837,
        1.0069546699523926
      ],
      "type": "VEC2"
    },
    {
      "bufferView": 0,
      "byteOffset": 239988,
      "componentType": 5125,
      "count": 34548,
      "type": "SCALAR"
    },
    {
      "bufferView": 2,
      "byteOffset": 502224,
      "componentType": 5126,
      "count": 551,
      "max": [
        13.742549896240234,
        12.405025482177734,
        10.258256912231445
      ],
      "min": [
        -13.042284965515137,
        6.840742111206055,
        -0.4337921142578125
      ],
      "type": "VEC3"
    },
    {
      "bufferView": 2,
      "byteOffset": 508836,
      "componentType": 5126,
      "count": 551,
      "max": [
        0.995374858379364,
        0.9957746863365173,
        0.9988715052604675
      ],
      "min": [
        -0.986661970615387,
        -0.966969907283783,
        -0.9901213049888611
      ],
      "type": "VEC3"
    },
    {
      "bufferView": 1,
      "byteOffset": 167408,
      "componentType": 5126,
      "count": 551,
      "max": [
        0.9840653538703918,
        0.9433362483978271
      ],
      "min": [
        0.23505926132202148,
        0.009069561958312988
      ],
      "type": "VEC2"
    },
    {
      "bufferView": 0,
      "byteOffset": 378180,
      "componentType": 5125,
      "count": 2388,
      "type": "SCALAR"
    },
    {
      "bufferView": 2,
      "byteOffset": 515448,
      "componentType": 5126,
      "count": 9198,
      "max": [
        10.48779582977295,
        17.699485778808594,
        13.67028522491455
      ],
      "min": [
        -10.078510284423828,
        3.4101333618164063,
        -9.216065406799316
      ],
      "type": "VEC3"
    },
    {
      "bufferView": 2,
      "byteOffset": 625824,
      "componentType": 5126,
      "count": 9198,
      "max": [
        0.9999796748161316,
        0.9999895095825195,
        0.999998927116394
      ],
      "min": [
        -0.9999796748161316,
        -1.0,
        -0.9999874234199524
      ],
      "type": "VEC3"
    },
    {
      "bufferView": 1,
      "byteOffset": 171816,
      "componentType": 5126,
      "count": 9198,
      "max": [
        1.9949133396148682,
        0.9894998073577881
      ],
      "min": [
        1.0090019702911377,
        0.012746976688504219
      ],
      "type": "VEC2"
    },
    {
      "bufferView": 0,
      "byteOffset": 387732,
      "componentType": 5125,
      "count": 42360,
      "type": "SCALAR"
    },
    {
      "bufferView": 2,
      "byteOffset": 736200,
      "componentType": 5126,
      "count": 224,
      "max": [
        4.0948805809021,
        14.789306640625,
        5.617900371551514
      ],
      "min": [
        -4.1870574951171875,
        5.565219879150391,
        -6.69666862487793
      ],
      "type": "VEC3"
    },
    {
      "bufferView": 2,
      "byteOffset": 738888,
      "componentType": 5126,
      "count": 224,
      "max": [
        0.9987560510635376,
        0.866348385810852,
        0.9999086260795593
      ],
      "min": [
        -0.9940236806869507,
        -0.03782757371664047,
        -0.9811353087425232
      ],
      "type": "VEC3"
    },
    {
      "bufferView": 1,
      "byteOffset": 245400,
      "componentType": 5126,
      "count": 224,
      "max": [
        0.3093985319137573,
        0.9433688521385193
      ],
      "min": [
        0.13096481561660767,
        0.7290492057800293
      ],
      "type": "VEC2"
    },
    {
      "bufferView": 0,
      "byteOffset": 557172,
      "componentType": 5125,
      "count": 1248,
      "type": "SCALAR"
    }
  ],
  "asset": {
    "extras": {
      "author": "Blueky (https://sketchfab.com/Blueky)",
      "license": "CC-BY-NC-4.0 (http://creativecommons.org/licenses/by-nc/4.0/)",
      "source": "https://sketchfab.com/3d-models/beth-harmon-709afc363286448990d695fcf50e3c9e",
      "title": "Beth Harmon"
    },
    "generator": "Sketchfab-12.68.0",
    "version": "2.0"
  },
  "bufferViews": [
    {
      "buffer": 0,
      "byteLength": 562164,
      "name": "floatBufferViews",
      "target": 34963
    },
    {
      "buffer": 0,
      "byteLength": 247192,
      "byteOffset": 562164,
      "byteStride": 8,
      "name": "floatBufferViews",
      "target": 34962
    },
    {
      "buffer": 0,
      "byteLength": 741576,
      "byteOffset": 809356,
      "byteStride": 12,
      "name": "floatBufferViews",
      "target": 34962
    }
  ],
  "buffers": [
    {
      "byteLength": 1550932,
      "uri": "scene.bin"
    }
  ],
  "extensionsUsed": [
    "KHR_materials_unlit"
  ],
  "images": [
    {
      "uri": "textures/aiStandardSurface3_baseColor.png"
    },
    {
      "uri": "textures/aiStandardSurface2_baseColor.png"
    },
    {
      "uri": "textures/aiStandardSurface4_baseColor.png"
    }
  ],
  "materials": [
    {
      "doubleSided": true,
      "extensions": {
        "KHR_materials_unlit": {}
      },
      "name": "aiStandardSurface3",
      "pbrMetallicRoughness": {
        "baseColorTexture": {
          "index": 0
        },
        "metallicFactor": 0.0
      }
    },
    {
      "doubleSided": true,
      "extensions": {
        "KHR_materials_unlit": {}
      },
      "name": "aiStandardSurface2",
      "pbrMetallicRoughness": {
        "baseColorTexture": {
          "index": 1
        },
        "metallicFactor": 0.0
      }
    },
    {
      "doubleSided": true,
      "extensions": {
        "KHR_materials_unlit": {}
      },
      "name": "aiStandardSurface4",
      "pbrMetallicRoughness": {
        "baseColorTexture": {
          "index": 2
        },
        "metallicFactor": 0.0
      }
    },
    {
      "alphaMode": "BLEND",
      "doubleSided": true,
      "extensions": {
        "KHR_materials_unlit": {}
      },
      "name": "aiStandardSurface6",
      "pbrMetallicRoughness": {
        "baseColorFactor": [
          1.0,
          1.0,
          1.0,
          0.5306851139
        ],
        "baseColorTexture": {
          "index": 1
        },
        "metallicFactor": 0.0
      }
    },
    {
      "doubleSided": true,
      "extensions": {
        "KHR_materials_unlit": {}
      },
      "name": "aiStandardSurface5",
      "pbrMetallicRoughness": {
        "baseColorTexture": {
          "index": 1
        },
        "metallicFactor": 0.0
      }
    }
  ],
  "meshes": [
    {
      "name": "pSphere5_aiStandardSurface3_0",
      "primitives": [
        {
          "attributes": {
            "NORMAL": 1,
            "POSITION": 0,
            "TEXCOORD_0": 2
          },
          "indices": 3,
          "material": 0,
          "mode": 4
        }
      ]
    },
    {
      "name": "nurbsToPoly10_aiStandardSurface2_0",
      "primitives": [
        {
          "attributes": {
            "NORMAL": 5,
            "POSITION": 4,
            "TEXCOORD_0": 6
          },
          "indices": 7,
          "material": 1,
          "mode": 4
        }
      ]
    },
    {
      "name": "nurbsToPoly10_aiStandardSurface4_0",
      "primitives": [
        {
          "attributes": {
            "NORMAL": 9,
            "POSITION": 8,
            "TEXCOORD_0": 10
          },
          "indices": 11,
          "material": 2,
          "mode": 4
        }
      ]
    },
    {
      "name": "nurbsToPoly10_aiStandardSurface6_0",
      "primitives": [
        {
          "attributes": {
            "NORMAL": 13,
            "POSITION": 12,
            "TEXCOORD_0": 14
          },
          "indices": 15,
          "material": 3,
          "mode": 4
        }
      ]
    },
    {
      "name": "nurbsToPoly10_aiStandardSurface3_0",
      "primitives": [
        {
          "attributes": {
            "NORMAL": 17,
            "POSITION": 16,
            "TEXCOORD_0": 18
          },
          "indices": 19,
          "material": 0,
          "mode": 4
        }
      ]
    },
    {
      "name": "nurbsToPoly10_aiStandardSurface5_0",
      "primitives": [
        {
          "attributes": {
            "NORMAL": 21,
            "POSITION": 20,
            "TEXCOORD_0": 22
          },
          "indices": 23,
          "material": 4,
          "mode": 4
        }
      ]
    }
  ],
  "nodes": [
    {
      "children": [
        1
      ],
      "matrix": [
        1.0,
        0.0,
        0.0,
        0.0,
        0.0,
        2.220446049250313e-16,
        -1.0,
        0.0,
        0.0,
        1.0,
        2.220446049250313e-16,
        0.0,
        0.0,
        0.0,
        0.0,
        1.0
      ],
      "name": "Sketchfab_model"
    },
    {
      "children": [
        2
      ],
      "matrix": [
        1.0,
        0.0,
        0.0,
        0.0,
        0.0,
        0.0,
        1.0,
        0.0,
        0.0,
        -1.0,
        0.0,
        0.0,
        0.0,
        0.0,
        0.0,
        1.0
      ],
      "name": "be9b5fabbf6342868ecfeebc25914699.fbx"
    },
    {
      "children": [
        3,
        5
      ],
      "name": "RootNode"
    },
    {
      "children": [
        4
      ],
      "matrix": [
        77.76692962646484,
        0.0,
        0.0,
        0.0,
        0.0,
        77.76692962646484,
        0.0,
        0.0,
        0.0,
        0.0,
        77.76692962646484,
        0.0,
        0.0,
        11.805594444274902,
        0.0,
        1.0
      ],
      "name": "pSphere5"
    },
    {
      "mesh": 0,
      "name": "pSphere5_aiStandardSurface3_0"
    },
    {
      "children": [
        6,
        7,
        8,
        9,
        10
      ],
      "name": "nurbsToPoly10"
    },
    {
      "mesh": 1,
      "name": "nurbsToPoly10_aiStandardSurface2_0"
    },
    {
      "mesh": 2,
      "name": "nurbsToPoly10_aiStandardSurface4_0"
    },
    {
      "mesh": 3,
      "name": "nurbsToPoly10_aiStandardSurface6_0"
    },
    {
      "mesh": 4,
      "name": "nurbsToPoly10_aiStandardSurface3_0"
    },
    {
      "mesh": 5,
      "name": "nurbsToPoly10_aiStandardSurface5_0"
    }
  ],
  "samplers": [
    {
      "magFilter": 9729,
      "minFilter": 9729,
      "wrapS": 10497,
      "wrapT": 10497
    }
  ],
  "scene": 0,
  "scenes": [
    {
      "name": "Sketchfab_Scene",
      "nodes": [
        0
      ]
    }
  ],
  "textures": [
    {
      "sampler": 0,
      "source": 0
    },
    {
      "sampler": 0,
      "source": 1
    },
    {
      "sampler": 0,
      "source": 2
    }
  ]
}
