<svg xmlns="http://www.w3.org/2000/svg" version="1.1" xmlns:xlink="http://www.w3.org/1999/xlink" xmlns:svgjs="http://svgjs.dev/svgjs" width="1000" height="2111" viewBox="0 0 1000 2111"><g transform="matrix(1,0,0,1,0.5697082753620748,0.8546558704451854)"><svg viewBox="0 0 117 247" data-background-color="#636365" preserveAspectRatio="xMidYMid meet" height="2111" width="1000" xmlns="http://www.w3.org/2000/svg" xmlns:xlink="http://www.w3.org/1999/xlink"><g id="tight-bounds" transform="matrix(1,0,0,1,-0.0666556605834785,-0.09999999999999432)"><svg viewBox="0 0 117.13331007536357 247.2" height="247.2" width="117.13331007536357"><g><svg viewBox="0 0 185.74525139664803 391.9997318927374" height="247.2" width="117.13331007536357"><g transform="matrix(1,0,0,1,0,144.7997318927374)"><svg viewBox="0 0 185.74525139664803 247.2" height="247.2" width="185.74525139664803"><g id="textblocktransform"><svg viewBox="0 0 185.74525139664803 247.2" height="247.2" width="185.74525139664803" id="textblock"><g><svg viewBox="0 0 185.74525139664803 247.2" height="247.2" width="185.74525139664803"><g transform="matrix(1,0,0,1,0,0)"><svg width="185.74525139664803" viewBox="0.9500000476837158 -24.799999237060547 26.899999618530273 35.79999923706055" height="247.2" data-palette-color="#1d3f85"><path d="M11.85 11L6.25 11 12.2-2.05 10.75-2.05 0.95-24.8 6.7-24.8 14.3-6.45 22.25-24.8 27.85-24.8 11.85 11Z" opacity="1" transform="matrix(1,0,0,1,0,0)" fill="#1d3f85" class="undefined-text-0" data-fill-palette-color="primary" id="text-0"></path></svg></g></svg></g></svg></g></svg></g><g transform="matrix(1,0,0,1,35.477343016759775,0)"><svg viewBox="0 0 114.79056536312848 86.44174469273742" height="86.44174469273742" width="114.79056536312848"><g><svg xmlns="http://www.w3.org/2000/svg" xmlns:xlink="http://www.w3.org/1999/xlink" version="1.1" x="8" y="0" viewBox="0 0 100 87.5" style="enable-background:new 0 0 100 87.5;" xml:space="preserve" width="98.79056536312848" height="86.44174469273742" class="icon-icon-0" data-fill-palette-color="accent" id="icon-0"><path d="M72.229 12.5c7.679 0 14.039 5.688 15.113 13.086l-37.33 42.871L12.658 25.586C13.732 18.188 20.093 12.5 27.771 12.5c6.299 0 12.048 6.763 12.048 6.763L50 30.078l10.181-10.815C60.181 19.263 65.93 12.5 72.229 12.5M72.229 0C62.902 0 55.041 4.932 50 12.012 44.959 4.932 37.098 0 27.771 0 12.451 0 0 12.476 0 27.783v2.295L50.024 87.5 100 30.078v-2.295C100 12.476 87.549 0 72.229 0L72.229 0z" fill="#568965" data-fill-palette-color="accent"></path></svg></g></svg></g><g><rect width="1.1713723561175442" height="22.292751110399998" y="63.14899358233741" x="150.26790837988824" fill="#568965" data-fill-palette-color="accent"></rect><rect width="1.1713723561175442" height="22.292751110399998" y="63.14899358233741" x="34.30597066064223" fill="#568965" data-fill-palette-color="accent"></rect><rect width="1.1713723561175442" height="22.292751110399998" y="18.563491361537416" x="150.26790837988824" fill="#568965" data-fill-palette-color="accent"></rect><rect width="1.1713723561175442" height="22.292751110399998" y="18.563491361537416" x="34.30597066064223" fill="#568965" data-fill-palette-color="accent"></rect></g></svg></g><defs></defs></svg><rect width="117.13331007536357" height="247.2" fill="none" stroke="none" visibility="hidden"></rect></g></svg></g></svg>